<svg width="241" height="240" viewBox="0 0 241 240" fill="none" xmlns="http://www.w3.org/2000/svg">
<path d="M143.151 166.178C134.541 141.953 135.252 120.946 137.977 114.4C148.739 122.048 165.882 115.916 171.298 113.16C179.411 122.089 172.402 169.864 167.883 192.635C166.145 195.611 162.399 194.082 160.743 192.945L158.673 177.132L156.293 190.981C154.969 193.296 151.05 192.841 149.256 192.325L143.151 166.178Z" fill="#000000"/>
<path d="M138.491 114.297C138.903 112.737 140.146 109.647 137.89 105.41C137.659 104.786 137.313 104.195 137.042 103.549C131.705 90.8375 141.802 83.8098 143.458 81.8462" stroke="#000000" stroke-width="2" stroke-linecap="round"/>
<path d="M137.896 105.409C134.501 107.269 128.46 109.129 120.802 106.752C113.144 104.375 110.454 82.3622 112.213 79.4684C113.62 77.1534 114.697 76.3982 115.938 77.2981C122.251 82.3923 123.596 86.1129 126.183 92.1802C127.092 94.3117 127.942 95.384 128.874 94.3505C131.04 90.8957 137.235 83.3661 144.686 80.8857" stroke="#000000" stroke-width="2" stroke-linecap="round"/>
<path d="M143.461 81.8465C143.838 81.399 144.225 81.103 144.597 80.9164C145.531 80.4484 146.378 80.6702 146.772 80.9164C148.428 81.7431 152.609 82.3426 156.086 78.126C158.563 75.7391 165.089 73.5904 171.381 84.0906" stroke="#000000" stroke-width="2" stroke-linecap="round"/>
<path d="M171.192 92.0778C171.882 87.8751 174.276 78.932 178.333 76.7824C182.389 74.6327 184.714 77.8158 185.369 79.6761C186.853 83.7757 188.495 93.9588 183.196 101.896C176.573 111.817 166.122 108.303 162.086 97.5553" stroke="#000000" stroke-width="2" stroke-linecap="round"/>
<path d="M186.614 65.7237C187.27 65.517 188.477 65.8064 188.063 68.6175C187.546 72.1313 185.58 75.025 183.82 77.092" stroke="#000000" stroke-width="2" stroke-linecap="round"/>
<path d="M184.438 64.5867C185.024 64.2079 186.279 63.9047 186.611 65.7236C186.68 66.2748 186.673 67.5012 186.093 67.9972" stroke="#000000" stroke-width="2" stroke-linecap="round"/>
<path d="M182.578 68.824L182.371 64.07C182.371 63.76 182.578 63.0985 183.406 62.9332C184.441 62.7265 184.337 64.1733 184.441 64.5867C184.524 64.9175 184.475 66.3782 184.441 67.0671" stroke="#000000" stroke-width="2" stroke-linecap="round"/>
<path d="M180.371 70.4536L180.609 66.5508C180.609 65.9997 180.961 64.9179 182.368 65.0006" stroke="#000000" stroke-width="2" stroke-linecap="round"/>
<path d="M178.336 76.6789C177.715 75.1287 176.783 71.7182 176.99 69.6513C177.108 68.4789 176.99 67.3776 177.922 67.1709C179.267 66.8725 179.2 68.7193 179.888 69.6513C180.059 69.822 180.256 70.1029 180.374 70.4537C180.567 71.0233 180.554 71.7776 179.888 72.545" stroke="#000000" stroke-width="2" stroke-linecap="round"/>
<path d="M115.832 77.0919V74.1981L116.66 71.9245C116.935 70.96 116.97 68.4106 115.418 68.4106C114.051 68.4106 113.922 69.7542 113.922 70.9943L114.176 72.2345" stroke="#000000" stroke-width="2" stroke-linecap="round"/>
<path d="M113.922 70.994C113.317 70.2017 113.472 68.4274 113.922 66.86C114.487 64.8964 112.831 64.173 111.796 64.7931C110.968 65.2892 111.417 67.5146 111.589 68.617" stroke="#000000" stroke-width="2" stroke-linecap="round"/>
<path d="M111.589 68.6178C111.416 67.5155 110.968 65.29 111.796 64.7939C111.397 64.1031 110.44 63.3309 109.623 63.5537C109.095 63.6976 108.566 64.1027 108.484 65.724C108.898 66.8609 108.691 67.2743 109.726 68.6178" stroke="#000000" stroke-width="2" stroke-linecap="round"/>
<path d="M109.726 68.617C108.691 67.2734 108.898 66.8601 108.484 65.7232C107.518 65.6199 105.876 66.0746 107.035 68.7203L108.484 71.6141" stroke="#000000" stroke-width="2" stroke-linecap="round"/>
<path d="M107.038 68.7207C106.106 68.9964 104.72 70.4776 106.624 74.1981C108.528 77.9187 111.142 79.1245 112.212 79.2622" stroke="#000000" stroke-width="2" stroke-linecap="round"/>
<path d="M136.042 86.5268C126.687 74.8692 130.144 65.823 133.041 62.7568C134.366 72.5956 142.216 76.5021 145.976 77.2255V80.7394C144.817 79.9126 138.87 84.2532 136.042 86.5268Z" fill="#000000"/>
<path d="M176.989 72.1314C173.16 77.2988 169.331 77.9189 167.572 78.4357C160.759 74.6912 157.165 76.551 156.22 77.9491L155.806 73.2984C158.703 70.322 160.324 65.6507 160.773 63.6871C161.766 64.2658 162.842 63.7904 163.256 63.4804C163.774 62.9982 164.643 61.3721 163.981 58.7264C163.318 56.0807 161.497 57.1419 160.669 58.003L156.013 59.3465C155.433 54.8819 152.439 53.8835 151.015 53.9423C151.677 51.2966 149.531 50.5663 148.427 50.3251C147.268 52.3921 145.461 53.46 144.702 53.9423C136.755 57.5801 131.146 55.4925 128.145 52.1854C124.937 48.8783 123.799 39.9904 130.629 36.5799C132.826 35.2607 138.282 33.538 142.529 37.1999C152.153 31.6192 158.923 41.5713 160.949 45.2611L163.122 48.5682C177.03 49.0643 179.541 61.3833 179.058 67.4808C176.798 65.8032 176.737 69.8822 176.989 72.1314Z" fill="#000000"/>
<path d="M155.88 59.4197C155.88 62.4995 153.65 64.8972 151.016 64.8972C148.382 64.8972 146.152 62.4995 146.152 59.4197C146.152 56.3402 148.382 53.9424 151.016 53.9424C153.65 53.9424 155.88 56.3402 155.88 59.4197Z" stroke="#000000" stroke-width="2"/>
<path d="M142.841 61.2802C142.841 64.3599 140.611 66.7576 137.977 66.7576C135.342 66.7576 133.113 64.3599 133.113 61.2802C133.113 58.2006 135.342 55.8027 137.977 55.8027C140.611 55.8027 142.841 58.2006 142.841 61.2802Z" stroke="#000000" stroke-width="2"/>
<path d="M142.867 60.1186L146.119 59.7529" stroke="#000000" stroke-width="2" stroke-linecap="round"/>
<path d="M145.734 73.3719C145.734 72.5108 146.231 71.0156 148.218 71.925" stroke="#000000" stroke-width="2" stroke-linecap="round"/>
<path d="M145.224 62.9336C144.706 65.5173 143.133 67.8736 145.534 69.0311" stroke="#000000" stroke-width="2" stroke-linecap="round"/>
<path d="M136.837 66.5809C137.695 66.5809 138.39 65.8868 138.39 65.0307C138.39 64.1745 137.695 63.4805 136.837 63.4805C135.98 63.4805 135.285 64.1745 135.285 65.0307C135.285 65.8868 135.98 66.5809 136.837 66.5809Z" fill="#000000"/>
<path d="M149.669 64.7196C150.527 64.7196 151.222 64.0255 151.222 63.1694C151.222 62.3132 150.527 61.6191 149.669 61.6191C148.812 61.6191 148.117 62.3132 148.117 63.1694C148.117 64.0255 148.812 64.7196 149.669 64.7196Z" fill="#000000"/>
<path d="M162.191 59.626C162.433 60.0394 162.771 61.0315 162.191 61.6929" stroke="#000000" stroke-width="2" stroke-linecap="round"/>
<path d="M133.319 55.626C132.043 59.6221 131.888 68.8656 140.912 75.2318C149.936 81.598 156.883 72.9238 159.228 67.7908L160.781 63.5535C161.85 64.2081 164.009 64.587 164.092 60.8665C164.175 57.1459 162.678 56.9049 161.919 57.2493C161.505 57.4217 160.636 58.0141 160.47 59.0062" stroke="#000000" stroke-width="2" stroke-linecap="round"/>
<path d="M155.984 59.2125L161.158 57.7656" stroke="#000000" stroke-width="2" stroke-linecap="round"/>
<path d="M150.188 59.3481C151.04 59.3206 152.812 59.6951 153.085 61.4136" stroke="#000000" stroke-width="2" stroke-linecap="round"/>
<path d="M135.078 60.9669C135.663 60.5773 137.156 59.9731 138.444 60.6746" stroke="#000000" stroke-width="2" stroke-linecap="round"/>
<path d="M112.938 120.322L118.526 109.78" stroke="#000000" stroke-width="2" stroke-linecap="round"/>
<path d="M122.246 126.419L130.214 120.012" stroke="#000000" stroke-width="2" stroke-linecap="round"/>
<path d="M102.272 119.288L97.3047 96.1382" stroke="#000000" stroke-width="2" stroke-linecap="round"/>
<path d="M93.9961 120.218L87.8906 111.227" stroke="#000000" stroke-width="2" stroke-linecap="round"/>
<path d="M52.5 175.096L65.3318 165.485L66.9875 175.613L103.6 199.427L52.5 175.096Z" fill="#000000"/>
<path d="M88.6172 161.902L100.207 155.606L118.937 167.134" stroke="#000000" stroke-width="2" stroke-linecap="round"/>
<path d="M88.6165 161.903L105.746 173.192C106.367 173.6 107.162 173.632 107.813 173.273L118.937 167.135L140.56 155.29C141.903 154.555 141.955 152.644 140.653 151.837L99.7142 126.437C99.1204 126.068 98.3773 126.036 97.7542 126.353L65.1947 142.887C63.8262 143.582 63.7181 145.496 64.9997 146.34L88.6165 161.903Z" stroke="#000000" stroke-width="2" stroke-linecap="round"/>
<path d="M98.7578 125.843L100.207 155.607" stroke="#000000" stroke-width="2" stroke-linecap="round"/>
<path d="M106.754 173.856L104.164 195.652C103.972 197.271 105.693 198.427 107.119 197.637L133.675 182.923C134.121 182.675 134.456 182.266 134.611 181.78L143.564 153.644" stroke="#000000" stroke-width="2" stroke-linecap="round"/>
<path d="M104.119 199.219L67.1966 175.346L62.5195 144.548" stroke="#000000" stroke-width="2" stroke-linecap="round"/>
<path d="M75.6163 158.138L85.2002 176.749L88.9256 173.545C87.8217 171.375 84.7228 165.538 80.5835 157.518C76.4442 149.498 79.6122 144.091 85.0968 141.507L102.171 132.723C109.105 128.777 115.9 133.378 117.176 136.753L124.317 141.197L122.661 138.407L120.281 134.499C115.934 126.541 106.764 126.548 103.039 127.96C98.1066 130.337 85.9023 135.549 78.8243 140.775C71.9544 145.848 73.5467 154.245 75.6163 158.138Z" fill="#000000"/>
<path d="M86.7544 179.127C89.2119 179.127 91.2042 176.814 91.2042 173.96C91.2042 171.106 89.2119 168.792 86.7544 168.792C84.2969 168.792 82.3047 171.106 82.3047 173.96C82.3047 176.814 84.2969 179.127 86.7544 179.127Z" fill="#000000"/>
<path d="M172.873 198.97C173.453 197.234 169.424 198.246 167.596 198.97C167.596 200.541 163.732 201.76 161.801 202.174C169.252 201.657 172.563 199.9 172.873 198.97Z" fill="#000000"/>
<path d="M158.388 196.902C160.044 195.972 157.767 195.387 156.422 195.559L156.215 197.316L158.388 196.902Z" fill="#000000"/>
<path d="M148.794 194.073C148.142 194.946 146.105 196.693 144.149 196.693C142.474 196.693 141.826 198.689 143.66 199.687C146.716 200.934 153.758 200.361 156.007 197.566V193.698" stroke="#000000" stroke-width="2" stroke-linecap="round"/>
<path d="M160.844 195.352C160.268 195.853 158.795 196.906 157.511 197.106C155.906 197.357 153.671 199.24 154.918 201.492C156.029 203.496 158.498 203.079 159.98 202.619L165.782 200.489C166.399 200.239 167.387 199.863 167.387 198.359C167.387 196.856 167.387 196.229 167.387 196.104" stroke="#000000" stroke-width="2" stroke-linecap="round"/>
<path d="M171.176 112.717C171.417 111.959 171.962 109.886 172.211 107.653" stroke="#000000" stroke-width="2" stroke-linecap="round"/>
</svg>
